HIERARCHY
ROOT hip
{
	OFFSET 0.000000 0.000000 0.000000
	CHANNELS 6 Xposition Yposition Zposition Xrotation Zrotation Yrotation 
	JOINT abdomen
	{
		OFFSET 0.000000 3.422050 0.000000
		CHANNELS 3 Xrotation Zrotation Yrotation 
		JOINT chest
		{
			OFFSET 0.000000 8.486693 -0.684411
			CHANNELS 3 Xrotation Zrotation Yrotation 
			JOINT neck
			{
				OFFSET 0.000000 10.266162 -0.273764
				CHANNELS 3 Xrotation Zrotation Yrotation 
				JOINT head
				{
					OFFSET 0.000000 3.148285 0.000000
					CHANNELS 3 Xrotation Zrotation Yrotation 
					End Site
					{
						OFFSET 0.000000 3.148289 0.000000
					}
				}
			}
			JOINT lCollar
			{
				OFFSET 3.422053 6.707223 -0.821293
				CHANNELS 3 Yrotation Zrotation Xrotation 
				JOINT lShldr
				{
					OFFSET 3.285171 0.000000 0.000000
					CHANNELS 3 Zrotation Yrotation Xrotation 
					JOINT lForeArm
					{
						OFFSET 10.129278 0.000000 0.000000
						CHANNELS 3 Yrotation Zrotation Xrotation 
						JOINT lHand
						{
							OFFSET 8.486692 0.000000 0.000000
							CHANNELS 3 Zrotation Yrotation Xrotation 
							End Site
							{
								OFFSET 4.106464 0.000000 0.000000
							}
						}
					}
				}
			}
			JOINT rCollar
			{
				OFFSET -3.558935 6.707223 -0.821293
				CHANNELS 3 Yrotation Zrotation Xrotation 
				JOINT rShldr
				{
					OFFSET -3.148289 0.000000 0.000000
					CHANNELS 3 Zrotation Yrotation Xrotation 
					JOINT rForeArm
					{
						OFFSET -10.266159 0.000000 0.000000
						CHANNELS 3 Yrotation Zrotation Xrotation 
						JOINT rHand
						{
							OFFSET -8.349810 0.000000 0.000000
							CHANNELS 3 Zrotation Yrotation Xrotation 
							End Site
							{
								OFFSET -4.106464 0.000000 0.000000
							}
						}
					}
				}
			}
		}
	}
	JOINT lThigh
	{
		OFFSET 5.338403 -1.642589 1.368821
		CHANNELS 3 Xrotation Zrotation Yrotation 
		JOINT lShin
		{
			OFFSET -2.053232 -20.121670 0.000000
			CHANNELS 3 Xrotation Zrotation Yrotation 
			JOINT lFoot
			{
				OFFSET 0.000000 -19.300380 -1.231939
				CHANNELS 3 Xrotation Yrotation Zrotation 
				End Site
				{
					OFFSET 0.000000 -2.463878 4.653993
				}
			}
		}
	}
	JOINT rThigh
	{
		OFFSET -5.338403 -1.642589 1.368821
		CHANNELS 3 Xrotation Zrotation Yrotation 
		JOINT rShin
		{
			OFFSET 2.053232 -20.121670 0.000000
			CHANNELS 3 Xrotation Zrotation Yrotation 
			JOINT rFoot
			{
				OFFSET 0.000000 -19.300380 -1.231939
				CHANNELS 3 Xrotation Yrotation Zrotation 
				End Site
				{
					OFFSET 0.000000 -2.463878 4.653993
				}
			}
		}
	}
}
MOTION
Frames: 17
Frame Time: 0.033315
9.999443 7.997272 0.000000 -90.001862 -0.260951 179.739059 0.000000 0.000000 0.000000 -0.082183 0.000000 0.000000 0.000000 1.998697 0.000000 0.000000 -19.200891 0.000000 9.999330 -26.001677 -0.000252 -16.245472 -29.803141 -38.976852 -118.001846 0.000000 0.000000 -10.002190 0.000000 0.000000 0.000000 0.000000 0.000000 42.201286 43.554714 -33.336376 120.993744 0.000000 0.000000 0.998433 0.000000 0.000000 -31.000374 23.998268 -0.000065 40.996567 0.000000 0.000000 63.997410 -0.000001 0.000001 -36.000153 -24.000933 -0.000587 47.999062 0.000000 0.000000 37.997963 0.000000 0.000000 
9.999443 7.997272 0.000000 -90.001862 -0.260951 179.739059 0.000000 0.000000 0.000000 -0.082183 0.000000 0.000000 0.000000 1.998697 0.000000 0.000000 -18.398174 0.000000 9.999330 -26.001677 -0.000252 -16.510471 -29.784143 -38.788429 -118.001846 0.000000 0.000000 -10.002190 0.000000 0.000000 0.000000 0.000000 0.000000 41.865402 43.826878 -33.766918 120.993744 0.000000 0.000000 0.998433 0.000000 0.000000 -31.000374 23.998268 -0.000065 40.996567 0.000000 0.000000 63.997410 -0.000001 0.000001 -36.000153 -24.000933 -0.000587 47.999062 0.000000 0.000000 37.997963 0.000000 0.000000 
9.999443 7.997272 0.000000 -90.001862 -0.260951 179.739059 0.000000 0.000000 0.000000 -0.082183 0.000000 0.000000 0.000000 1.998697 0.000000 0.000000 -17.593634 0.000000 9.999330 -26.001677 -0.000252 -16.775381 -29.764383 -38.600113 -118.001846 0.000000 0.000000 -10.002190 0.000000 0.000000 0.000000 0.000000 0.000000 41.524994 44.097298 -34.201820 120.993744 0.000000 0.000000 0.998433 0.000000 0.000000 -31.000374 23.998268 -0.000065 40.996567 0.000000 0.000000 63.997410 -0.000001 0.000001 -36.000153 -24.000933 -0.000587 47.999062 0.000000 0.000000 37.997963 0.000000 0.000000 
9.999443 7.997272 0.000000 -90.001862 -0.260951 179.739059 0.000000 0.000000 0.000000 -0.082183 0.000000 0.000000 0.000000 1.998697 0.000000 0.000000 -16.787340 0.000000 9.999330 -26.001677 -0.000252 -17.040199 -29.743876 -38.411934 -118.001846 0.000000 0.000000 -10.002190 0.000000 0.000000 0.000000 0.000000 0.000000 41.180023 44.365948 -34.641136 120.993744 0.000000 0.000000 0.998433 0.000000 0.000000 -31.000374 23.998270 -0.000065 40.996567 0.000000 0.000000 63.997410 -0.000001 0.000001 -36.000153 -24.000933 -0.000587 47.999062 0.000000 0.000000 37.997963 0.000000 0.000000 
9.999443 7.997272 0.000000 -90.001862 -0.260951 179.739059 0.000000 0.000000 0.000000 -0.082183 0.000000 0.000000 0.000000 1.998697 0.000000 0.000000 -15.979369 0.000000 9.999330 -26.001677 -0.000252 -17.304901 -29.722593 -38.223858 -118.001846 0.000000 0.000000 -10.002190 0.000000 0.000000 0.000000 0.000000 0.000000 40.830463 44.632782 -35.084888 120.993744 0.000000 0.000000 0.998433 0.000000 0.000000 -31.000374 23.998268 -0.000065 40.996567 0.000000 0.000000 63.997410 -0.000001 0.000001 -36.000149 -24.000931 -0.000587 47.999062 0.000000 0.000000 37.997963 0.000000 0.000000 
9.999443 7.997272 0.000000 -90.001862 -0.260951 179.739059 0.000000 0.000000 0.000000 -0.082183 0.000000 0.000000 0.000000 1.998697 0.000000 0.000000 -15.169794 0.000000 9.999330 -26.001677 -0.000252 -17.569506 -29.700577 -38.035938 -118.001846 0.000000 0.000000 -10.002190 0.000000 0.000000 0.000000 0.000000 0.000000 40.476265 44.897755 -35.533123 120.993744 0.000000 0.000000 0.998433 0.000000 0.000000 -31.000374 23.998268 -0.000065 40.996567 0.000000 0.000000 63.997410 -0.000001 0.000001 -36.000153 -24.000933 -0.000587 47.999062 0.000000 0.000000 37.997963 0.000000 0.000000 
9.999443 7.997272 0.000000 -90.001862 -0.260951 179.739059 0.000000 0.000000 0.000000 -0.082183 0.000000 0.000000 0.000000 1.998697 0.000000 0.000000 -14.358692 0.000000 9.999330 -26.001677 -0.000252 -17.833984 -29.677788 -37.848156 -118.001846 0.000000 0.000000 -10.002190 0.000000 0.000000 0.000000 0.000000 0.000000 40.117386 45.160816 -35.985889 120.993744 0.000000 0.000000 0.998433 0.000000 0.000000 -31.000374 23.998268 -0.000065 40.996567 0.000000 0.000000 63.997410 -0.000001 0.000001 -36.000153 -24.000933 -0.000587 47.999062 0.000000 0.000000 37.997963 0.000000 0.000000 
9.999443 7.997272 0.000000 -90.001862 -0.260951 179.739059 0.000000 0.000000 0.000000 -0.082183 0.000000 0.000000 0.000000 1.998697 0.000000 0.000000 -13.546144 0.000000 9.999330 -26.001677 -0.000252 -18.098345 -29.654251 -37.660515 -118.001846 0.000000 0.000000 -10.002190 0.000000 0.000000 0.000000 0.000000 0.000000 39.753796 45.421928 -36.443214 120.993744 0.000000 0.000000 0.998433 0.000000 0.000000 -31.000374 23.998268 -0.000065 40.996567 0.000000 0.000000 63.997410 -0.000001 0.000001 -36.000153 -24.000933 -0.000588 47.999062 0.000000 0.000000 37.997963 0.000000 0.000000 
9.999443 7.997272 0.000000 -90.001862 -0.260951 179.739059 0.000000 0.000000 0.000000 -0.082183 0.000000 0.000000 0.000000 1.998697 0.000000 0.000000 -12.732224 0.000000 9.999330 -26.001677 -0.000252 -18.362570 -29.629955 -37.473038 -118.001846 0.000000 0.000000 -10.002190 0.000000 0.000000 0.000000 0.000000 0.000000 39.385456 45.681049 -36.905140 120.993744 0.000000 0.000000 0.998433 0.000000 0.000000 -31.000374 23.998268 -0.000065 40.996567 0.000000 0.000000 63.997410 -0.000001 0.000001 -36.000149 -24.000931 -0.000587 47.999062 0.000000 0.000000 37.997963 0.000000 0.000000 
9.999443 7.997272 0.000000 -90.001862 -0.260951 179.739059 0.000000 0.000000 0.000000 -0.082183 0.000000 0.000000 0.000000 1.998697 0.000000 0.000000 -11.917014 0.000000 9.999330 -26.001677 -0.000252 -18.626659 -29.604916 -37.285728 -118.001846 0.000000 0.000000 -10.002190 0.000000 0.000000 0.000000 0.000000 0.000000 39.012329 45.938133 -37.371712 120.993744 0.000000 0.000000 0.998433 0.000000 0.000000 -31.000374 23.998268 -0.000065 40.996567 0.000000 0.000000 63.997410 -0.000001 0.000001 -36.000153 -24.000933 -0.000587 47.999062 0.000000 0.000000 37.997963 0.000000 0.000000 
9.999443 7.997272 0.000000 -90.001862 -0.260951 179.739059 0.000000 0.000000 0.000000 -0.082183 0.000000 0.000000 0.000000 1.998697 0.000000 0.000000 -11.100589 0.000000 9.999330 -26.001677 -0.000252 -18.890596 -29.579107 -37.098572 -118.001846 0.000000 0.000000 -10.002190 0.000000 0.000000 0.000000 0.000000 0.000000 38.634384 46.193123 -37.842934 120.993744 0.000000 0.000000 0.998433 0.000000 0.000000 -31.000374 23.998268 -0.000065 40.996567 0.000000 0.000000 63.997410 -0.000001 0.000001 -36.000153 -24.000933 -0.000588 47.999062 0.000000 0.000000 37.997963 0.000000 0.000000 
9.999443 7.997272 0.000000 -90.001862 -0.260951 179.739059 0.000000 0.000000 0.000000 -0.082183 0.000000 0.000000 0.000000 1.998697 0.000000 0.000000 -10.283036 0.000000 9.999330 -26.001677 -0.000252 -19.154392 -29.552567 -36.911613 -118.001846 0.000000 0.000000 -10.002190 0.000000 0.000000 0.000000 0.000000 0.000000 38.251575 46.445988 -38.318886 120.993744 0.000000 0.000000 0.998433 0.000000 0.000000 -31.000372 23.998266 -0.000066 40.996567 0.000000 0.000000 63.997410 -0.000001 0.000001 -36.000149 -24.000931 -0.000587 47.999062 0.000000 0.000000 37.997963 0.000000 0.000000 
9.999443 7.997272 0.000000 -90.001862 -0.260951 179.739059 0.000000 0.000000 0.000000 -0.082183 0.000000 0.000000 0.000000 1.998697 0.000000 0.000000 -9.464432 0.000000 9.999330 -26.001677 -0.000252 -19.418024 -29.525269 -36.724827 -118.001846 0.000000 0.000000 -10.002190 0.000000 0.000000 0.000000 0.000000 0.000000 37.863892 46.696667 -38.799561 120.993744 0.000000 0.000000 0.998433 0.000000 0.000000 -31.000372 23.998266 -0.000066 40.996567 0.000000 0.000000 63.997410 -0.000001 0.000001 -36.000153 -24.000933 -0.000587 47.999062 0.000000 0.000000 37.997963 0.000000 0.000000 
9.999443 7.997272 0.000000 -90.001862 -0.260951 179.739059 0.000000 0.000000 0.000000 -0.082183 0.000000 0.000000 0.000000 1.998697 0.000000 0.000000 -8.644855 0.000000 9.999330 -26.001677 -0.000252 -19.681490 -29.497217 -36.538223 -118.001846 0.000000 0.000000 -10.002190 0.000000 0.000000 0.000000 0.000000 0.000000 37.471275 46.945122 -39.285004 120.993744 0.000000 0.000000 0.998433 0.000000 0.000000 -31.000372 23.998268 -0.000066 40.996567 0.000000 0.000000 63.997410 -0.000001 0.000001 -36.000153 -24.000933 -0.000587 47.999062 0.000000 0.000000 37.997963 0.000000 0.000000 
9.999443 7.997272 0.000000 -90.001862 -0.260951 179.739059 0.000000 0.000000 0.000000 -0.082183 0.000000 0.000000 0.000000 1.998697 0.000000 0.000000 -7.824392 0.000000 9.999330 -26.001677 -0.000252 -19.944792 -29.468435 -36.351833 -118.001846 0.000000 0.000000 -10.002190 0.000000 0.000000 0.000000 0.000000 0.000000 37.073719 47.191296 -39.775242 120.993744 0.000000 0.000000 0.998433 0.000000 0.000000 -31.000374 23.998268 -0.000064 40.996567 0.000000 0.000000 63.997410 -0.000001 0.000001 -36.000153 -24.000933 -0.000588 47.999062 0.000000 0.000000 37.997963 0.000000 0.000000 
9.999443 7.997272 0.000000 -90.001862 -0.260951 179.739059 0.000000 0.000000 0.000000 -0.082183 0.000000 0.000000 0.000000 1.998697 0.000000 0.000000 -7.003128 0.000000 9.999330 -26.001677 -0.000252 -20.207903 -29.438887 -36.165630 -118.001846 0.000000 0.000000 -10.002190 0.000000 0.000000 0.000000 0.000000 0.000000 36.671192 47.435158 -40.270306 120.993744 0.000000 0.000000 0.998433 0.000000 0.000000 -31.000374 23.998270 -0.000065 40.996567 0.000000 0.000000 63.997410 -0.000001 0.000001 -36.000149 -24.000933 -0.000586 47.999069 0.000000 0.000000 37.997963 0.000000 0.000000 
9.999443 7.997272 0.000000 -90.001862 -0.260951 179.739059 0.000000 0.000000 0.000000 -0.082183 0.000000 0.000000 0.000000 1.998697 0.000000 0.000000 -6.181139 0.000000 9.999330 -26.001677 -0.000252 -20.470831 -29.408609 -35.979649 -118.001846 0.000000 0.000000 -10.002190 0.000000 0.000000 0.000000 0.000000 0.000000 36.263664 47.676643 -40.770218 120.993744 0.000000 0.000000 0.998433 0.000000 0.000000 -31.000374 23.998270 -0.000065 40.996567 0.000000 0.000000 63.997410 -0.000001 0.000001 -36.000153 -24.000933 -0.000587 47.999058 0.000000 0.000000 37.997963 0.000000 0.000000 
